<svg xmlns="http://www.w3.org/2000/svg" x="0px" y="0px" viewBox="0 0 400 208" style="enable-background:new 0 0 400 208;" xml:space="preserve">
<path fill="#84cc16" d="M387.5,12.5c-7.9-8.1-18.7-12.6-30-12.5c-17.2-0.2-32.8,10-39.4,25.9c-2.2,5.3-3.3,11-3.3,16.7v23.1  c-5.9-2.9-12.3-4.3-18.9-4.2c-6.6,0-13.2,1.6-19.1,4.5V42.6c0.2-11.3-4.4-22.2-12.5-30.1c-7.9-8.1-18.7-12.6-30-12.5  c-5.7,0-11.3,1.1-16.5,3.3c-10.3,4.3-18.5,12.5-22.9,22.7c-2.2,5.2-3.4,10.9-3.3,16.6V47c-4-5.9-8.6-11.4-13.7-16.4  C157.5,10.2,132.9,0,104.1,0C75.5,0,50.9,10.2,30.5,30.6C10.2,50.8,0,75.3,0,104v61.4c-0.2,11.3,4.4,22.2,12.5,30.1  c7.9,8.1,18.7,12.6,30,12.5c17.2,0.2,32.8-10,39.4-25.9c2.2-5.3,3.3-11,3.3-16.7v-23.1c5.9,2.9,12.3,4.3,18.9,4.2  c6.6,0,13.2-1.6,19.1-4.5v23.3c0,23.5,19,42.5,42.5,42.6c5.7,0,11.3-1.1,16.5-3.3c10.3-4.3,18.5-12.5,22.9-22.7  c2.2-5.2,3.4-10.9,3.3-16.6V161c4,5.9,8.6,11.4,13.7,16.4c20.3,20.4,44.9,30.6,73.7,30.6c28.7,0,53.2-10.2,73.7-30.6  c20.3-20.2,30.5-44.7,30.5-73.4V42.6C400.2,31.3,395.6,20.3,387.5,12.5z M272.1,94c1.3-3,3.2-5.8,5.5-8.1c2.4-2.4,5.2-4.2,8.3-5.5  c3.1-1.3,6.5-2,9.9-2c14.1,0.2,25.4,11.6,25.4,25.7c0,3.4-0.7,6.8-2,9.9c-1.3,3.1-3.1,5.9-5.4,8.2c-4.7,4.9-11.3,7.6-18.1,7.5  c-3.4,0-6.8-0.7-9.9-2c-6.2-2.6-11.2-7.5-13.8-13.8c-1.3-3.1-2-6.5-2-9.9C270.1,100.6,270.8,97.2,272.1,94z M127.9,114  c-1.3,3-3.2,5.8-5.6,8.1c-2.4,2.4-5.2,4.2-8.3,5.5c-3.1,1.3-6.5,2-9.9,2C90,129.5,78.7,118.1,78.6,104c0-3.4,0.7-6.8,2-9.9  c1.3-3.1,3.1-5.9,5.4-8.2c4.7-4.9,11.3-7.6,18.1-7.5c3.4,0,6.8,0.7,9.9,2c6.2,2.6,11.2,7.5,13.8,13.8c1.3,3.1,2,6.5,2,9.9  C129.9,107.4,129.2,110.8,127.9,114z M191.5,165.4c0,3.4-0.6,6.8-2,10c-1.3,3-3.2,5.8-5.6,8.1c-2.4,2.4-5.2,4.2-8.3,5.5  c-3.1,1.3-6.5,2-9.9,2c-14.1-0.1-25.4-11.6-25.5-25.6V104c0.1-9.5-3.8-18.6-10.6-25.2c-14-14.1-36.8-14.1-50.9-0.1  c0,0-0.1,0.1-0.1,0.1c-6.8,6.6-10.6,15.7-10.4,25.2v61.4c0.1,10.3-6,19.7-15.6,23.6c-3.2,1.3-6.7,2-10.2,2  c-6.8,0.1-13.3-2.7-17.9-7.5c-4.9-4.7-7.7-11.3-7.6-18.1V104c0-24,8.5-44.5,25.5-61.4c17.2-17.1,37.7-25.6,61.6-25.6  c24.1,0,44.6,8.5,61.6,25.6c17.2,16.9,25.7,37.4,25.7,61.4V165.4z M383,104c0,24-8.5,44.5-25.5,61.4c-17.2,17.1-37.7,25.6-61.6,25.6  c-24.1,0-44.6-8.5-61.6-25.6c-17.2-16.9-25.7-37.4-25.7-61.4V42.6c0-3.4,0.6-6.8,2-10c1.3-3,3.2-5.8,5.6-8.1  c2.4-2.4,5.2-4.2,8.3-5.5c3.1-1.3,6.5-2,9.9-2c6.8-0.1,13.3,2.7,17.9,7.5c4.9,4.7,7.7,11.3,7.6,18.1V104  c-0.1,9.5,3.8,18.6,10.6,25.2c14,14.1,36.8,14.1,50.9,0.1c0,0,0.1-0.1,0.1-0.1c6.8-6.6,10.6-15.7,10.4-25.2V42.6  c-0.1-10.3,6-19.7,15.6-23.6c3.2-1.3,6.7-2,10.2-2c6.8-0.1,13.3,2.7,17.9,7.5c4.9,4.7,7.7,11.3,7.6,18.1V104z"/>
</svg>
